# xmcd
#
# Track frame offsets:
#	150
#	15388
#	26085
#	51880
#	59085
#	76062
#	101848
#	133788
#	160516
#
# Disc length: 2537 seconds
#
# Revision: 2
# Processed by: cddbd v1.5.1PL2 Copyright (c) Steve Scherf et al.
# Submitted via: EasyCDDAExtractor 8.0.2.1
#
DISCID=6d09e709
DTITLE=Dio - Jurahalle Neumarkt 20-11-93 Disc 2
DYEAR=1993
DGENRE=Hard Rock
TTITLE0=Heaven and Hell
TTITLE1=Man On The Silver Mountain
TTITLE2=Drum Solo
TTITLE3=Heaven and Hell Reprise
TTITLE4=Jesus Mary and The Holy Ghost
TTITLE5=Hollywood Black
TTITLE6=The Last In Line
TTITLE7=Rainbow In The Dark
TTITLE8=We Rock
EXTD=
EXTT0=
EXTT1=
EXTT2=
EXTT3=
EXTT4=
EXTT5=
EXTT6=
EXTT7=
EXTT8=
PLAYORDER=
